<svg width="648" height="146" viewBox="0 0 648 146" fill="none" xmlns="http://www.w3.org/2000/svg">
<g filter="url(#filter0_d)">
<path d="M8.048 137.552C5.488 137.552 4.208 136.272 4.208 133.712V4.496C4.208 1.936 5.488 0.655994 8.048 0.655994H19.376C21.936 0.655994 23.216 1.936 23.216 4.496V65.36C23.216 78.8 29.488 85.52 42.032 85.52C46.768 85.52 51.184 84.688 55.28 83.024C59.376 81.36 63.6 78.736 67.952 75.152V4.496C67.952 1.936 69.232 0.655994 71.792 0.655994H83.12C85.68 0.655994 86.96 1.936 86.96 4.496V75.92C86.96 78.608 87.536 80.592 88.688 81.872C89.968 83.024 92.08 83.6 95.024 83.6C95.792 83.6 96.56 83.6 97.328 83.6C98.096 83.472 98.672 83.408 99.056 83.408C100.848 83.408 101.744 84.688 101.744 87.248V92.048C101.744 93.84 101.424 95.184 100.784 96.08C100.272 96.848 99.312 97.424 97.904 97.808C94.704 98.576 91.568 98.96 88.496 98.96C79.024 98.96 72.944 94.864 70.256 86.672C60.528 96.144 50.224 100.88 39.344 100.88C32.176 100.88 26.48 99.088 22.256 95.504V133.712C22.256 136.272 20.976 137.552 18.416 137.552H8.048Z" fill="#EC7211"/>
<path d="M132.047 98C130.639 98 129.935 97.296 129.935 95.888V33.584C129.935 32.176 130.639 31.472 132.047 31.472H139.535C140.943 31.472 141.647 32.176 141.647 33.584V88.4H170.159C171.567 88.4 172.271 89.104 172.271 90.512V95.888C172.271 97.296 171.567 98 170.159 98H132.047ZM192.068 99.44C187.588 99.44 183.94 98.096 181.124 95.408C178.372 92.72 176.996 89.232 176.996 84.944C176.996 80.208 178.692 76.432 182.084 73.616C185.54 70.8 190.148 69.392 195.908 69.392C199.3 69.392 203.012 69.872 207.044 70.832V65.168C207.044 61.904 206.34 59.632 204.932 58.352C203.524 57.072 201.06 56.432 197.54 56.432C195.428 56.432 193.092 56.656 190.532 57.104C187.972 57.488 185.54 58.064 183.236 58.832C182.596 59.024 182.052 59.12 181.604 59.12C180.772 59.12 180.356 58.512 180.356 57.296V53.744C180.356 52.848 180.484 52.208 180.74 51.824C180.996 51.44 181.668 51.024 182.756 50.576C187.748 48.656 193.284 47.696 199.364 47.696C205.636 47.696 210.244 48.976 213.188 51.536C216.196 54.096 217.7 58.096 217.7 63.536V95.888C217.7 97.296 216.996 98 215.588 98H210.5C209.092 98 208.292 97.36 208.1 96.08L207.62 93.296C205.38 95.216 202.884 96.72 200.132 97.808C197.444 98.896 194.756 99.44 192.068 99.44ZM195.236 91.376C197.092 91.376 199.044 90.992 201.092 90.224C203.14 89.392 205.124 88.24 207.044 86.768V77.552C203.652 76.848 200.644 76.496 198.02 76.496C191.364 76.496 188.036 79.088 188.036 84.272C188.036 86.512 188.676 88.272 189.956 89.552C191.236 90.768 192.996 91.376 195.236 91.376ZM233.368 98C231.96 98 231.256 97.296 231.256 95.888V51.248C231.256 49.84 231.96 49.136 233.368 49.136H238.456C239.288 49.136 239.896 49.296 240.28 49.616C240.664 49.872 240.92 50.384 241.048 51.152L241.72 54.032C244.92 51.856 247.928 50.256 250.744 49.232C253.624 48.208 256.504 47.696 259.384 47.696C265.336 47.696 269.432 49.904 271.672 54.32C278.072 49.904 284.216 47.696 290.104 47.696C294.648 47.696 298.168 48.944 300.664 51.44C303.16 53.872 304.408 57.424 304.408 62.096V95.888C304.408 97.296 303.704 98 302.296 98H295.192C293.784 98 293.08 97.296 293.08 95.888V64.88C293.08 61.936 292.504 59.824 291.352 58.544C290.2 57.264 288.312 56.624 285.688 56.624C283.704 56.624 281.592 56.976 279.352 57.68C277.112 58.32 275.16 59.152 273.496 60.176V95.888C273.496 97.296 272.792 98 271.384 98H264.28C262.872 98 262.168 97.296 262.168 95.888V64.88C262.168 61.936 261.592 59.824 260.44 58.544C259.288 57.264 257.4 56.624 254.776 56.624C252.92 56.624 250.904 56.944 248.728 57.584C246.616 58.16 244.568 59.024 242.584 60.176V95.888C242.584 97.296 241.88 98 240.472 98H233.368ZM340.727 90.128C344.823 90.128 347.863 88.752 349.847 86C351.831 83.184 352.823 78.928 352.823 73.232C352.823 67.6 351.831 63.44 349.847 60.752C347.927 58 344.919 56.624 340.823 56.624C336.663 56.624 332.823 57.84 329.303 60.272V86.384C332.887 88.88 336.695 90.128 340.727 90.128ZM343.607 99.056C340.727 99.056 337.975 98.544 335.351 97.52C332.727 96.432 330.455 94.928 328.535 93.008L327.863 96.08C327.607 97.36 326.775 98 325.367 98H320.087C318.679 98 317.975 97.296 317.975 95.888V29.072C317.975 27.664 318.679 26.96 320.087 26.96H327.191C328.599 26.96 329.303 27.664 329.303 29.072V53.456C333.847 49.616 338.871 47.696 344.375 47.696C350.455 47.696 355.287 49.968 358.871 54.512C362.519 59.056 364.343 65.168 364.343 72.848C364.343 78.16 363.447 82.8 361.655 86.768C359.927 90.736 357.495 93.776 354.359 95.888C351.287 98 347.703 99.056 343.607 99.056ZM393.391 99.056C387.247 99.056 382.319 96.784 378.607 92.24C374.959 87.632 373.135 81.456 373.135 73.712C373.135 68.4 373.999 63.792 375.727 59.888C377.519 55.92 379.983 52.912 383.119 50.864C386.255 48.752 389.871 47.696 393.967 47.696C399.087 47.696 403.759 49.36 407.983 52.688V29.072C407.983 27.664 408.687 26.96 410.095 26.96H417.199C418.607 26.96 419.311 27.664 419.311 29.072V95.888C419.311 97.296 418.607 98 417.199 98H411.631C410.223 98 409.391 97.36 409.135 96.08L408.463 93.296C404.111 97.136 399.087 99.056 393.391 99.056ZM396.943 90.128C400.719 90.128 404.399 88.912 407.983 86.48V60.08C404.719 57.776 401.103 56.624 397.135 56.624C392.847 56.624 389.679 58 387.631 60.752C385.647 63.44 384.655 67.6 384.655 73.232C384.655 84.496 388.751 90.128 396.943 90.128ZM445.1 99.44C440.62 99.44 436.972 98.096 434.156 95.408C431.404 92.72 430.028 89.232 430.028 84.944C430.028 80.208 431.724 76.432 435.116 73.616C438.572 70.8 443.18 69.392 448.94 69.392C452.332 69.392 456.044 69.872 460.076 70.832V65.168C460.076 61.904 459.372 59.632 457.964 58.352C456.556 57.072 454.092 56.432 450.572 56.432C448.46 56.432 446.124 56.656 443.564 57.104C441.004 57.488 438.572 58.064 436.268 58.832C435.628 59.024 435.084 59.12 434.636 59.12C433.804 59.12 433.388 58.512 433.388 57.296V53.744C433.388 52.848 433.516 52.208 433.772 51.824C434.028 51.44 434.7 51.024 435.788 50.576C440.78 48.656 446.316 47.696 452.396 47.696C458.668 47.696 463.276 48.976 466.22 51.536C469.228 54.096 470.732 58.096 470.732 63.536V95.888C470.732 97.296 470.028 98 468.62 98H463.532C462.124 98 461.324 97.36 461.132 96.08L460.652 93.296C458.412 95.216 455.916 96.72 453.164 97.808C450.476 98.896 447.788 99.44 445.1 99.44ZM448.268 91.376C450.124 91.376 452.076 90.992 454.124 90.224C456.172 89.392 458.156 88.24 460.076 86.768V77.552C456.684 76.848 453.676 76.496 451.052 76.496C444.396 76.496 441.068 79.088 441.068 84.272C441.068 86.512 441.708 88.272 442.988 89.552C444.268 90.768 446.028 91.376 448.268 91.376ZM543.588 72.752L533.508 42.032L523.524 72.752H543.588ZM505.38 98C504.868 98 504.452 97.904 504.132 97.712C503.876 97.456 503.748 97.136 503.748 96.752C503.748 96.496 503.94 95.824 504.324 94.736L526.692 33.584C526.948 32.816 527.3 32.272 527.748 31.952C528.196 31.632 528.804 31.472 529.572 31.472H538.02C538.788 31.472 539.396 31.632 539.844 31.952C540.292 32.272 540.644 32.816 540.9 33.584L563.172 94.736C563.556 95.824 563.748 96.496 563.748 96.752C563.748 97.136 563.588 97.456 563.268 97.712C563.012 97.904 562.628 98 562.116 98H553.764C553.06 98 552.516 97.872 552.132 97.616C551.812 97.296 551.524 96.784 551.268 96.08L546.276 81.296H520.74L515.844 96.08C515.588 96.848 515.268 97.36 514.884 97.616C514.564 97.872 514.052 98 513.348 98H505.38ZM575.015 98C573.607 98 572.903 97.296 572.903 95.888V33.584C572.903 32.176 573.575 31.472 574.919 31.472H597.575C604.231 31.472 609.479 33.328 613.319 37.04C617.223 40.752 619.175 45.808 619.175 52.208C619.175 58.608 617.223 63.664 613.319 67.376C609.479 71.088 604.231 72.944 597.575 72.944H584.327V95.888C584.327 97.296 583.623 98 582.215 98H575.015ZM596.423 63.92C600.135 63.92 602.919 62.928 604.775 60.944C606.695 58.96 607.655 56.048 607.655 52.208C607.655 48.368 606.695 45.456 604.775 43.472C602.919 41.488 600.135 40.496 596.423 40.496H584.327V63.92H596.423ZM633.618 98C632.21 98 631.506 97.296 631.506 95.888V33.584C631.506 32.176 632.21 31.472 633.618 31.472H641.106C642.514 31.472 643.218 32.176 643.218 33.584V95.888C643.218 97.296 642.514 98 641.106 98H633.618Z" fill="#232F3E"/>
</g>
<defs>
<filter id="filter0_d" x="0.208008" y="0.656006" width="647.01" height="144.896" filterUnits="userSpaceOnUse" color-interpolation-filters="sRGB">
<feFlood flood-opacity="0" result="BackgroundImageFix"/>
<feColorMatrix in="SourceAlpha" type="matrix" values="0 0 0 0 0 0 0 0 0 0 0 0 0 0 0 0 0 0 127 0"/>
<feOffset dy="4"/>
<feGaussianBlur stdDeviation="2"/>
<feColorMatrix type="matrix" values="0 0 0 0 0 0 0 0 0 0 0 0 0 0 0 0 0 0 0.25 0"/>
<feBlend mode="normal" in2="BackgroundImageFix" result="effect1_dropShadow"/>
<feBlend mode="normal" in="SourceGraphic" in2="effect1_dropShadow" result="shape"/>
</filter>
</defs>
</svg>
