<svg width="512" height="512" viewBox="0 0 512 512" fill="none" xmlns="http://www.w3.org/2000/svg">
<rect width="512" height="512" rx="48" fill="#EC7211"/>
<g filter="url(#filter0_d)">
<path d="M74.096 453.104C68.976 453.104 66.416 450.544 66.416 445.424V186.992C66.416 181.872 68.976 179.312 74.096 179.312H96.752C101.872 179.312 104.432 181.872 104.432 186.992V308.72C104.432 335.6 116.976 349.04 142.064 349.04C151.536 349.04 160.368 347.376 168.56 344.048C176.752 340.72 185.2 335.472 193.904 328.304V186.992C193.904 181.872 196.464 179.312 201.584 179.312H224.24C229.36 179.312 231.92 181.872 231.92 186.992V329.84C231.92 335.216 233.072 339.184 235.376 341.744C237.936 344.048 242.16 345.2 248.048 345.2C249.584 345.2 251.12 345.2 252.656 345.2C254.192 344.944 255.344 344.816 256.112 344.816C259.696 344.816 261.488 347.376 261.488 352.496V362.096C261.488 365.68 260.848 368.368 259.568 370.16C258.544 371.696 256.624 372.848 253.808 373.616C247.408 375.152 241.136 375.92 234.992 375.92C216.048 375.92 203.888 367.728 198.512 351.344C179.056 370.288 158.448 379.76 136.688 379.76C122.352 379.76 110.96 376.176 102.512 369.008V445.424C102.512 450.544 99.952 453.104 94.832 453.104H74.096ZM290.663 374C287.079 374 285.287 372.464 285.287 369.392C285.287 367.6 286.183 364.528 287.975 360.176L362.855 181.616L352.871 152.816C347.751 137.968 342.759 127.984 337.895 122.864C333.031 117.744 326.375 115.184 317.927 115.184C315.111 115.184 312.423 115.44 309.863 115.952C307.303 116.464 305.255 116.72 303.719 116.72C299.879 116.72 297.959 114.288 297.959 109.424V98.672C297.959 95.344 298.471 92.784 299.495 90.992C300.775 89.2 302.951 87.92 306.023 87.152C312.935 85.36 319.591 84.464 325.991 84.464C340.071 84.464 351.335 88.56 359.783 96.752C368.231 104.688 376.295 119.152 383.975 140.144L466.151 360.176C467.943 364.528 468.839 367.6 468.839 369.392C468.839 372.464 467.047 374 463.463 374H441.959C437.863 374 435.047 373.36 433.511 372.08C431.975 370.8 430.439 367.984 428.903 363.632L378.983 218.864L325.607 363.632C324.071 367.984 322.535 370.8 320.999 372.08C319.463 373.36 316.647 374 312.551 374H290.663Z" fill="white"/>
</g>
<defs>
<filter id="filter0_d" x="62.416" y="84.464" width="410.423" height="376.64" filterUnits="userSpaceOnUse" color-interpolation-filters="sRGB">
<feFlood flood-opacity="0" result="BackgroundImageFix"/>
<feColorMatrix in="SourceAlpha" type="matrix" values="0 0 0 0 0 0 0 0 0 0 0 0 0 0 0 0 0 0 127 0"/>
<feOffset dy="4"/>
<feGaussianBlur stdDeviation="2"/>
<feColorMatrix type="matrix" values="0 0 0 0 0 0 0 0 0 0 0 0 0 0 0 0 0 0 0.25 0"/>
<feBlend mode="normal" in2="BackgroundImageFix" result="effect1_dropShadow"/>
<feBlend mode="normal" in="SourceGraphic" in2="effect1_dropShadow" result="shape"/>
</filter>
</defs>
</svg>
